<svg version="1.1" id="Layer_1" xmlns="http://www.w3.org/2000/svg" xmlns:xlink="http://www.w3.org/1999/xlink" x="0px" y="0px"
	 width="100%" viewBox="0 0 1007 854" enable-background="new 0 0 1007 854" xml:space="preserve">
<path fill="#000000" opacity="1.000000" stroke="none" 
	d="
M1.000000,201.000000 
	C1.000000,134.340805 1.000000,67.681625 1.000000,1.016826 
	C336.621552,1.011218 672.243103,1.011218 1007.932312,1.011218 
	C1007.932312,285.589600 1007.932312,570.179199 1007.932312,854.884399 
	C672.448059,854.884399 336.896118,854.884399 1.000000,854.884399 
	C1.000000,641.638733 1.000000,428.277313 1.357814,214.459290 
	C8.989013,220.057861 16.248428,226.129944 23.539585,232.163666 
	C31.331902,238.612137 39.214687,244.952576 46.949139,251.469360 
	C58.467243,261.174072 69.850578,271.038696 81.363930,280.749115 
	C93.252357,290.775848 105.269539,300.650024 117.148018,310.688416 
	C123.444115,316.009186 129.470200,321.650482 135.788925,326.943237 
	C144.151520,333.947998 152.722778,340.703094 161.126160,347.659943 
	C167.929047,353.291748 174.581818,359.104523 181.362595,364.763458 
	C192.916748,374.406067 204.513840,383.997284 216.103058,393.597778 
	C223.638565,399.840179 231.266769,405.973389 238.706604,412.327484 
	C242.499298,415.566772 245.968231,419.185211 249.583511,422.632294 
	C249.277435,422.985291 248.971344,423.338287 248.665268,423.691284 
	C240.117142,422.128113 231.583405,420.480499 223.017487,419.021820 
	C210.563721,416.901062 198.067673,415.025391 185.625092,412.843079 
	C173.369751,410.693665 161.176849,408.188507 148.922928,406.030426 
	C136.483368,403.839722 123.980942,402.004608 111.545876,399.790131 
	C97.707497,397.325684 83.924866,394.549805 70.097900,392.019165 
	C57.213272,389.660950 44.249058,387.707886 31.418581,385.092316 
	C19.665510,382.696381 14.708477,385.902313 12.921966,397.207611 
	C11.309820,407.409515 8.902055,417.483276 7.131279,427.663300 
	C5.550940,436.748474 3.962367,445.865295 3.126078,455.036407 
	C2.454204,462.404419 6.074260,465.844879 13.655930,467.026276 
	C21.970127,468.321838 30.267889,469.736816 38.546021,471.246704 
	C52.375847,473.769196 66.165024,476.517853 80.007645,478.965912 
	C92.446419,481.165649 104.952744,482.982574 117.394829,485.164795 
	C129.650665,487.314362 141.841309,489.836731 154.100479,491.965729 
	C168.462173,494.459839 182.883514,496.609711 197.248444,499.086151 
	C211.905151,501.612854 226.529221,504.330566 241.158096,507.016296 
	C245.728485,507.855377 250.268036,508.862396 255.913574,510.015594 
	C244.304565,515.317322 234.005951,520.144226 223.607025,524.744324 
	C201.180359,534.664917 178.691818,544.445618 156.248627,554.328979 
	C141.283035,560.919373 126.404419,567.709961 111.385849,574.176331 
	C102.289810,578.092651 99.223831,583.335815 103.134232,592.541809 
	C111.031219,611.133179 119.553802,629.462769 128.052231,647.791931 
	C130.469604,653.005676 135.225128,654.620911 141.355240,652.056274 
	C160.125381,644.203308 178.781647,636.073792 197.410538,627.888672 
	C220.897385,617.569092 244.339020,607.145447 267.751770,596.658630 
	C285.025391,588.921448 302.207336,580.979858 319.463531,573.203491 
	C323.119415,571.555969 326.920441,570.230530 331.471252,568.434448 
	C325.000549,585.496094 319.028076,601.376709 312.956268,617.219360 
	C305.676880,636.212708 298.317383,655.175415 290.984009,674.148071 
	C283.997559,692.223328 276.462921,710.111267 270.220123,728.439453 
	C266.787964,738.516052 267.931396,742.349243 277.651978,746.129333 
	C295.856445,753.208740 314.143646,760.076050 332.415405,766.981384 
	C339.510620,769.662781 344.566681,767.308594 347.175140,760.417847 
	C351.992340,747.692261 357.101715,735.077698 361.991516,722.379211 
	C369.414795,703.101440 376.757202,683.792542 384.129059,664.494995 
	C391.100708,646.245117 398.063538,627.991882 405.034821,609.741821 
	C409.836578,597.171326 414.598419,584.585205 419.474609,572.043579 
	C421.517426,566.789429 422.920837,566.591492 426.958557,570.397461 
	C429.582733,572.871033 432.301453,575.252197 435.073639,577.559631 
	C448.745209,588.939331 462.495819,600.224487 476.126556,611.652710 
	C487.407104,621.110535 498.498901,630.793457 509.783478,640.246399 
	C525.421265,653.345947 541.176147,666.305603 556.853271,679.358276 
	C571.032898,691.164246 585.191956,702.994934 599.330017,714.850586 
	C616.105957,728.917969 632.988892,742.862732 649.548889,757.180481 
	C657.911621,764.410767 664.365784,763.602478 671.209351,755.307190 
	C682.634460,741.458557 694.120483,727.660034 705.643372,713.892639 
	C711.376587,707.042603 712.290161,700.244507 704.908997,694.416382 
	C703.509216,693.311096 702.038513,692.292480 700.673706,691.146667 
	C683.906494,677.069153 667.156006,662.971558 650.394836,648.886841 
	C633.760742,634.908997 617.128357,620.929260 600.478699,606.970032 
	C586.212097,595.008789 571.906372,583.094238 557.654358,571.115723 
	C554.387512,568.370056 551.270020,565.446777 548.083801,562.605225 
	C548.291809,562.222107 548.499817,561.838989 548.707886,561.455872 
	C555.240479,562.637024 561.764709,563.866760 568.307434,564.988770 
	C580.752625,567.122803 593.219788,569.130005 605.656494,571.311646 
	C617.917419,573.462463 630.141296,575.824219 642.401001,577.982605 
	C654.836060,580.171875 667.308716,582.148010 679.739685,584.359619 
	C693.583130,586.822449 707.383789,589.526733 721.229736,591.974915 
	C733.664734,594.173645 746.149292,596.091309 758.587402,598.273132 
	C770.846924,600.423523 783.062622,602.823792 795.321228,604.979858 
	C809.349792,607.447144 823.451111,609.525574 837.431519,612.234009 
	C846.769409,614.043091 852.494690,610.450439 854.037292,601.342468 
	C857.223999,582.526489 860.765137,563.770264 863.908020,544.947266 
	C864.974854,538.558350 862.832275,532.293030 854.825378,530.935791 
	C843.359680,528.992249 831.923279,526.874084 820.482544,524.785950 
	C808.239075,522.551270 796.019653,520.182434 783.763000,518.023987 
	C771.325623,515.833740 758.837830,513.929321 746.404785,511.716278 
	C732.563843,509.252625 718.777893,506.480011 704.934326,504.031830 
	C692.496582,501.832214 679.995972,499.988556 667.554932,497.806396 
	C655.298401,495.656616 643.098145,493.185730 630.843018,491.027313 
	C618.404602,488.836639 605.917175,486.925232 593.473267,484.764740 
	C578.976807,482.247864 564.500183,479.615967 550.025085,476.978149 
	C547.391968,476.498322 544.807556,475.750549 541.352295,474.923370 
	C544.406433,473.321320 546.339111,472.166138 548.381531,471.257721 
	C572.257324,460.638397 596.160828,450.081268 620.033081,439.454071 
	C632.928772,433.713348 645.746033,427.795776 658.656311,422.088409 
	C681.084473,412.173401 703.590271,402.433716 726.000732,392.479187 
	C743.148621,384.862274 760.172058,376.965454 777.301147,369.305542 
	C797.645020,360.208008 818.053955,351.255981 838.413269,342.192749 
	C851.743469,336.258575 865.010559,330.182220 878.350708,324.270538 
	C901.213196,314.138947 924.119324,304.106018 946.990112,293.993073 
	C959.893127,288.287598 972.807373,282.603516 985.626221,276.713409 
	C991.566956,273.983765 993.479797,269.132355 991.412903,262.925354 
	C990.304688,259.597382 988.974182,256.332764 987.568665,253.116241 
	C981.342834,238.869141 974.909180,224.711075 968.834778,210.400192 
	C964.307495,199.734238 957.840637,197.218719 947.182190,202.333481 
	C940.385376,205.595139 933.510742,208.700317 926.614990,211.748932 
	C905.942932,220.888000 885.217773,229.907379 864.563782,239.086838 
	C851.519287,244.884323 838.607300,250.980042 825.560730,256.772766 
	C802.706909,266.919891 779.787537,276.919556 756.910095,287.013611 
	C736.376587,296.073486 715.833435,305.112335 695.348633,314.281311 
	C678.072876,322.013916 660.911194,330.001129 643.633728,337.729797 
	C619.780945,348.399841 595.853333,358.902588 571.982422,369.532318 
	C544.151611,381.925385 516.354492,394.393829 488.513916,406.764679 
	C486.875031,407.492950 484.978912,407.642334 482.714630,408.176056 
	C484.066895,404.408051 485.088745,401.377960 486.235016,398.395691 
	C495.026611,375.522675 503.843903,352.659576 512.650269,329.792267 
	C522.434021,304.387115 532.229431,278.986450 541.992126,253.573196 
	C549.457336,234.140381 556.907104,214.701538 564.312134,195.245697 
	C570.634094,178.635269 577.010986,162.043671 583.102661,145.348557 
	C585.655823,138.351318 583.913391,132.692001 576.626892,129.929733 
	C558.074707,122.896713 539.640930,115.548889 521.052002,108.616013 
	C513.528564,105.810066 507.686462,109.019836 504.981537,116.395271 
	C502.005157,124.510925 498.869324,132.568497 495.762848,140.635956 
	C487.187714,162.905518 478.549133,185.150757 470.016052,207.436401 
	C461.769867,228.972778 453.686676,250.571655 445.416473,272.098755 
	C436.686646,294.822174 427.771301,317.474274 419.026672,340.192047 
	C408.787537,366.792511 398.652008,393.432861 388.447632,420.046783 
	C387.630707,422.177368 386.628662,424.236969 385.621399,426.537994 
	C376.022369,418.543671 367.069580,411.182159 358.223511,403.694611 
	C348.727692,395.657227 339.385986,387.437561 329.877960,379.414886 
	C320.149261,371.205994 310.269440,363.176483 300.514893,354.997894 
	C293.619904,349.216797 286.868622,343.264221 279.972809,337.484100 
	C268.088226,327.522339 256.119934,317.660400 244.228088,307.707245 
	C237.328079,301.932098 230.546707,296.015198 223.643692,290.243713 
	C214.132538,282.291626 204.516357,274.464905 195.020477,266.494781 
	C185.873245,258.817291 176.867615,250.971008 167.716675,243.297989 
	C156.087936,233.547394 144.345535,223.932358 132.710251,214.189484 
	C125.684349,208.306290 118.812180,202.239624 111.792915,196.348358 
	C102.042427,188.164734 92.220757,180.065903 82.425789,171.935318 
	C74.642349,165.474442 66.960243,158.885208 59.030602,152.608856 
	C53.353210,148.115189 45.652100,149.552155 41.276848,155.214325 
	C36.994003,160.756897 32.441776,166.091629 27.995516,171.507523 
	C21.891790,178.942352 16.107685,186.682632 9.495818,193.635086 
	C7.006863,196.252258 6.140172,201.307831 1.000000,201.000000 
z"/>
<path fill="#FFFFFF" opacity="1.000000" stroke="none" 
	d="
M1.000000,201.463181 
	C6.140172,201.307831 7.006863,196.252258 9.495818,193.635086 
	C16.107685,186.682632 21.891790,178.942352 27.995516,171.507523 
	C32.441776,166.091629 36.994003,160.756897 41.276848,155.214325 
	C45.652100,149.552155 53.353210,148.115189 59.030602,152.608856 
	C66.960243,158.885208 74.642349,165.474442 82.425789,171.935318 
	C92.220757,180.065903 102.042427,188.164734 111.792915,196.348358 
	C118.812180,202.239624 125.684349,208.306290 132.710251,214.189484 
	C144.345535,223.932358 156.087936,233.547394 167.716675,243.297989 
	C176.867615,250.971008 185.873245,258.817291 195.020477,266.494781 
	C204.516357,274.464905 214.132538,282.291626 223.643692,290.243713 
	C230.546707,296.015198 237.328079,301.932098 244.228088,307.707245 
	C256.119934,317.660400 268.088226,327.522339 279.972809,337.484100 
	C286.868622,343.264221 293.619904,349.216797 300.514893,354.997894 
	C310.269440,363.176483 320.149261,371.205994 329.877960,379.414886 
	C339.385986,387.437561 348.727692,395.657227 358.223511,403.694611 
	C367.069580,411.182159 376.022369,418.543671 385.621399,426.537994 
	C386.628662,424.236969 387.630707,422.177368 388.447632,420.046783 
	C398.652008,393.432861 408.787537,366.792511 419.026672,340.192047 
	C427.771301,317.474274 436.686646,294.822174 445.416473,272.098755 
	C453.686676,250.571655 461.769867,228.972778 470.016052,207.436401 
	C478.549133,185.150757 487.187714,162.905518 495.762848,140.635956 
	C498.869324,132.568497 502.005157,124.510925 504.981537,116.395271 
	C507.686462,109.019836 513.528564,105.810066 521.052002,108.616013 
	C539.640930,115.548889 558.074707,122.896713 576.626892,129.929733 
	C583.913391,132.692001 585.655823,138.351318 583.102661,145.348557 
	C577.010986,162.043671 570.634094,178.635269 564.312134,195.245697 
	C556.907104,214.701538 549.457336,234.140381 541.992126,253.573196 
	C532.229431,278.986450 522.434021,304.387115 512.650269,329.792267 
	C503.843903,352.659576 495.026611,375.522675 486.235016,398.395691 
	C485.088745,401.377960 484.066895,404.408051 482.714630,408.176056 
	C484.978912,407.642334 486.875031,407.492950 488.513916,406.764679 
	C516.354492,394.393829 544.151611,381.925385 571.982422,369.532318 
	C595.853333,358.902588 619.780945,348.399841 643.633728,337.729797 
	C660.911194,330.001129 678.072876,322.013916 695.348633,314.281311 
	C715.833435,305.112335 736.376587,296.073486 756.910095,287.013611 
	C779.787537,276.919556 802.706909,266.919891 825.560730,256.772766 
	C838.607300,250.980042 851.519287,244.884323 864.563782,239.086838 
	C885.217773,229.907379 905.942932,220.888000 926.614990,211.748932 
	C933.510742,208.700317 940.385376,205.595139 947.182190,202.333481 
	C957.840637,197.218719 964.307495,199.734238 968.834778,210.400192 
	C974.909180,224.711075 981.342834,238.869141 987.568665,253.116241 
	C988.974182,256.332764 990.304688,259.597382 991.412903,262.925354 
	C993.479797,269.132355 991.566956,273.983765 985.626221,276.713409 
	C972.807373,282.603516 959.893127,288.287598 946.990112,293.993073 
	C924.119324,304.106018 901.213196,314.138947 878.350708,324.270538 
	C865.010559,330.182220 851.743469,336.258575 838.413269,342.192749 
	C818.053955,351.255981 797.645020,360.208008 777.301147,369.305542 
	C760.172058,376.965454 743.148621,384.862274 726.000732,392.479187 
	C703.590271,402.433716 681.084473,412.173401 658.656311,422.088409 
	C645.746033,427.795776 632.928772,433.713348 620.033081,439.454071 
	C596.160828,450.081268 572.257324,460.638397 548.381531,471.257721 
	C546.339111,472.166138 544.406433,473.321320 541.352295,474.923370 
	C544.807556,475.750549 547.391968,476.498322 550.025085,476.978149 
	C564.500183,479.615967 578.976807,482.247864 593.473267,484.764740 
	C605.917175,486.925232 618.404602,488.836639 630.843018,491.027313 
	C643.098145,493.185730 655.298401,495.656616 667.554932,497.806396 
	C679.995972,499.988556 692.496582,501.832214 704.934326,504.031830 
	C718.777893,506.480011 732.563843,509.252625 746.404785,511.716278 
	C758.837830,513.929321 771.325623,515.833740 783.763000,518.023987 
	C796.019653,520.182434 808.239075,522.551270 820.482544,524.785950 
	C831.923279,526.874084 843.359680,528.992249 854.825378,530.935791 
	C862.832275,532.293030 864.974854,538.558350 863.908020,544.947266 
	C860.765137,563.770264 857.223999,582.526489 854.037292,601.342468 
	C852.494690,610.450439 846.769409,614.043091 837.431519,612.234009 
	C823.451111,609.525574 809.349792,607.447144 795.321228,604.979858 
	C783.062622,602.823792 770.846924,600.423523 758.587402,598.273132 
	C746.149292,596.091309 733.664734,594.173645 721.229736,591.974915 
	C707.383789,589.526733 693.583130,586.822449 679.739685,584.359619 
	C667.308716,582.148010 654.836060,580.171875 642.401001,577.982605 
	C630.141296,575.824219 617.917419,573.462463 605.656494,571.311646 
	C593.219788,569.130005 580.752625,567.122803 568.307434,564.988770 
	C561.764709,563.866760 555.240479,562.637024 548.707886,561.455872 
	C548.499817,561.838989 548.291809,562.222107 548.083801,562.605225 
	C551.270020,565.446777 554.387512,568.370056 557.654358,571.115723 
	C571.906372,583.094238 586.212097,595.008789 600.478699,606.970032 
	C617.128357,620.929260 633.760742,634.908997 650.394836,648.886841 
	C667.156006,662.971558 683.906494,677.069153 700.673706,691.146667 
	C702.038513,692.292480 703.509216,693.311096 704.908997,694.416382 
	C712.290161,700.244507 711.376587,707.042603 705.643372,713.892639 
	C694.120483,727.660034 682.634460,741.458557 671.209351,755.307190 
	C664.365784,763.602478 657.911621,764.410767 649.548889,757.180481 
	C632.988892,742.862732 616.105957,728.917969 599.330017,714.850586 
	C585.191956,702.994934 571.032898,691.164246 556.853271,679.358276 
	C541.176147,666.305603 525.421265,653.345947 509.783478,640.246399 
	C498.498901,630.793457 487.407104,621.110535 476.126556,611.652710 
	C462.495819,600.224487 448.745209,588.939331 435.073639,577.559631 
	C432.301453,575.252197 429.582733,572.871033 426.958557,570.397461 
	C422.920837,566.591492 421.517426,566.789429 419.474609,572.043579 
	C414.598419,584.585205 409.836578,597.171326 405.034821,609.741821 
	C398.063538,627.991882 391.100708,646.245117 384.129059,664.494995 
	C376.757202,683.792542 369.414795,703.101440 361.991516,722.379211 
	C357.101715,735.077698 351.992340,747.692261 347.175140,760.417847 
	C344.566681,767.308594 339.510620,769.662781 332.415405,766.981384 
	C314.143646,760.076050 295.856445,753.208740 277.651978,746.129333 
	C267.931396,742.349243 266.787964,738.516052 270.220123,728.439453 
	C276.462921,710.111267 283.997559,692.223328 290.984009,674.148071 
	C298.317383,655.175415 305.676880,636.212708 312.956268,617.219360 
	C319.028076,601.376709 325.000549,585.496094 331.471252,568.434448 
	C326.920441,570.230530 323.119415,571.555969 319.463531,573.203491 
	C302.207336,580.979858 285.025391,588.921448 267.751770,596.658630 
	C244.339020,607.145447 220.897385,617.569092 197.410538,627.888672 
	C178.781647,636.073792 160.125381,644.203308 141.355240,652.056274 
	C135.225128,654.620911 130.469604,653.005676 128.052231,647.791931 
	C119.553802,629.462769 111.031219,611.133179 103.134232,592.541809 
	C99.223831,583.335815 102.289810,578.092651 111.385849,574.176331 
	C126.404419,567.709961 141.283035,560.919373 156.248627,554.328979 
	C178.691818,544.445618 201.180359,534.664917 223.607025,524.744324 
	C234.005951,520.144226 244.304565,515.317322 255.913574,510.015594 
	C250.268036,508.862396 245.728485,507.855377 241.158096,507.016296 
	C226.529221,504.330566 211.905151,501.612854 197.248444,499.086151 
	C182.883514,496.609711 168.462173,494.459839 154.100479,491.965729 
	C141.841309,489.836731 129.650665,487.314362 117.394829,485.164795 
	C104.952744,482.982574 92.446419,481.165649 80.007645,478.965912 
	C66.165024,476.517853 52.375847,473.769196 38.546021,471.246704 
	C30.267889,469.736816 21.970127,468.321838 13.655930,467.026276 
	C6.074260,465.844879 2.454204,462.404419 3.126078,455.036407 
	C3.962367,445.865295 5.550940,436.748474 7.131279,427.663300 
	C8.902055,417.483276 11.309820,407.409515 12.921966,397.207611 
	C14.708477,385.902313 19.665510,382.696381 31.418581,385.092316 
	C44.249058,387.707886 57.213272,389.660950 70.097900,392.019165 
	C83.924866,394.549805 97.707497,397.325684 111.545876,399.790131 
	C123.980942,402.004608 136.483368,403.839722 148.922928,406.030426 
	C161.176849,408.188507 173.369751,410.693665 185.625092,412.843079 
	C198.067673,415.025391 210.563721,416.901062 223.017487,419.021820 
	C231.583405,420.480499 240.117142,422.128113 248.665268,423.691284 
	C248.971344,423.338287 249.277435,422.985291 249.583511,422.632294 
	C245.968231,419.185211 242.499298,415.566772 238.706604,412.327484 
	C231.266769,405.973389 223.638565,399.840179 216.103058,393.597778 
	C204.513840,383.997284 192.916748,374.406067 181.362595,364.763458 
	C174.581818,359.104523 167.929047,353.291748 161.126160,347.659943 
	C152.722778,340.703094 144.151520,333.947998 135.788925,326.943237 
	C129.470200,321.650482 123.444115,316.009186 117.148018,310.688416 
	C105.269539,300.650024 93.252357,290.775848 81.363930,280.749115 
	C69.850578,271.038696 58.467243,261.174072 46.949139,251.469360 
	C39.214687,244.952576 31.331902,238.612137 23.539585,232.163666 
	C16.248428,226.129944 8.989013,220.057861 1.357814,214.001343 
	C1.000000,209.975449 1.000000,205.950912 1.000000,201.463181 
z"/>
</svg>