<?xml version="1.0" standalone="no"?>
<!DOCTYPE svg PUBLIC "-//W3C//DTD SVG 20010904//EN"
 "http://www.w3.org/TR/2001/REC-SVG-20010904/DTD/svg10.dtd">
<svg version="1.0" xmlns="http://www.w3.org/2000/svg"
 width="1007.000000pt" height="854.000000pt" viewBox="0 0 1007.000000 854.000000"
 preserveAspectRatio="xMidYMid meet">

<g transform="translate(0.000000,854.000000) scale(0.100000,-0.100000)"
fill="#000000" stroke="none">
<path d="M5103 7460 c-30 -12 -46 -39 -91 -160 -22 -58 -281 -734 -576 -1502
-295 -769 -545 -1422 -557 -1453 -11 -30 -27 -55 -34 -55 -8 0 -128 96 -267
213 -1709 1436 -2992 2510 -3019 2526 -39 24 -58 26 -95 9 -33 -16 -430 -485
-450 -533 -12 -30 -12 -40 0 -69 10 -25 306 -278 1227 -1051 668 -559 1227
-1030 1244 -1046 27 -27 28 -29 8 -29 -11 0 -520 88 -1129 196 -707 124 -1123
194 -1147 190 -48 -5 -71 -26 -85 -74 -6 -20 -34 -170 -62 -332 -61 -343 -61
-353 10 -387 33 -15 372 -78 1258 -234 666 -117 1212 -216 1212 -219 0 -3
-334 -154 -741 -335 -443 -197 -753 -341 -770 -357 -49 -45 -43 -70 98 -387
145 -325 166 -358 232 -347 21 3 465 196 985 427 521 232 949 420 951 417 2
-2 -135 -368 -306 -814 -172 -445 -314 -827 -316 -850 -9 -72 6 -81 342 -210
170 -66 316 -117 337 -117 28 -1 44 5 64 24 19 19 115 258 355 885 181 472
350 912 375 977 26 67 51 117 59 117 7 0 73 -51 147 -113 498 -422 2139 -1795
2168 -1815 42 -29 90 -25 127 10 66 61 421 498 427 525 4 16 3 41 -3 55 -13
33 -46 62 -898 777 -409 342 -743 623 -743 624 0 2 658 -113 1463 -255 804
-142 1482 -258 1507 -258 52 0 82 17 99 57 6 15 36 169 66 342 54 310 55 315
37 350 -9 20 -28 41 -42 48 -14 7 -735 137 -1602 290 -868 153 -1574 281
-1570 285 5 5 1009 454 2233 998 1789 797 2230 996 2253 1021 24 27 27 37 22
69 -3 20 -62 165 -131 321 -142 321 -159 345 -229 336 -24 -3 -1006 -435
-2386 -1050 -1290 -575 -2347 -1043 -2349 -1041 -2 1 225 598 504 1325 279
727 510 1338 512 1359 10 71 -15 86 -351 215 -164 63 -310 115 -325 114 -14 0
-36 -4 -48 -9z"/>
</g>
</svg>
